<svg width="462" height="118" viewBox="0 0 462 118" fill="none" xmlns="http://www.w3.org/2000/svg">
<path d="M49.3841 69.6H54.8181C56.3141 69.6 57.4508 70.0767 58.2281 71.03C59.0201 71.9833 59.2988 73.1713 59.0641 74.594C58.8148 76.046 58.1474 77.2267 57.0621 78.136C55.9768 79.0453 54.5834 79.5 52.8821 79.5H49.6921L48.7241 85H46.6781L49.3841 69.6ZM57.0621 74.374C57.2234 73.494 57.0768 72.7973 56.6221 72.284C56.1674 71.7707 55.4781 71.514 54.5541 71.514H51.1001L50.0221 77.586H53.1021C54.1434 77.586 55.0234 77.2927 55.7421 76.706C56.4608 76.1047 56.9008 75.3273 57.0621 74.374ZM69.3113 76.046L69.6633 74H71.5773L69.6413 85H67.7273L68.0133 83.438C66.8693 84.67 65.4026 85.286 63.6133 85.286C62.0293 85.286 60.7899 84.6847 59.8953 83.482C59.0006 82.294 58.6999 80.886 58.9933 79.258C59.2719 77.5713 60.0126 76.2293 61.2153 75.232C62.4033 74.22 63.7453 73.714 65.2413 73.714C67.1479 73.714 68.5046 74.4913 69.3113 76.046ZM68.6733 79.588C68.9079 78.3413 68.6879 77.3587 68.0133 76.64C67.3533 75.9213 66.4733 75.562 65.3733 75.562C64.3319 75.562 63.3786 75.9067 62.5133 76.596C61.6333 77.3 61.0979 78.2387 60.9073 79.412C60.7019 80.556 60.9073 81.5093 61.5233 82.272C62.1686 83.0493 63.0413 83.438 64.1413 83.438C65.2559 83.438 66.2386 83.0787 67.0893 82.36C67.9399 81.6267 68.4679 80.7027 68.6733 79.588ZM81.1442 77.124C80.9535 78.2387 80.3815 79.016 79.4282 79.456C80.5135 80.0427 80.9535 80.9593 80.7482 82.206C80.5722 83.1447 80.0809 83.8927 79.2742 84.45C78.4675 85.0073 77.4042 85.286 76.0842 85.286C74.9695 85.286 74.0675 85.0513 73.3782 84.582C72.6889 84.1127 72.2342 83.4673 72.0142 82.646L73.6862 81.766C73.9062 82.9247 74.7789 83.504 76.3042 83.504C77.0229 83.504 77.6169 83.35 78.0862 83.042C78.5555 82.7193 78.8269 82.3087 78.9002 81.81C78.9882 81.37 78.8929 81.0107 78.6142 80.732C78.3355 80.4533 77.9102 80.314 77.3382 80.314H75.7322L76.0622 78.576H77.2282C77.7855 78.576 78.2402 78.444 78.5922 78.18C78.9589 77.9013 79.1862 77.5273 79.2742 77.058C79.3475 76.574 79.2229 76.1927 78.9002 75.914C78.5775 75.6207 78.0935 75.474 77.4482 75.474C76.2162 75.474 75.2995 76.002 74.6982 77.058L73.2242 76.112C74.2949 74.5133 75.7615 73.714 77.6242 73.714C78.8415 73.714 79.7729 74.0587 80.4182 74.748C81.0489 75.4227 81.2909 76.2147 81.1442 77.124ZM90.3015 73.714C91.8708 73.714 93.1028 74.3153 93.9975 75.518C94.9068 76.7207 95.2222 78.1213 94.9435 79.72C94.6648 81.392 93.9242 82.7413 92.7215 83.768C91.5482 84.78 90.2135 85.286 88.7175 85.286C87.7935 85.286 86.9722 85.0807 86.2535 84.67C85.5348 84.2447 84.9922 83.658 84.6255 82.91L83.4815 89.4H81.5675L84.2735 74H86.1875L85.9015 75.628C87.0455 74.352 88.5122 73.714 90.3015 73.714ZM93.0295 79.588C93.2348 78.4587 93.0222 77.5053 92.3915 76.728C91.7755 75.9507 90.9102 75.562 89.7955 75.562C88.6662 75.562 87.6762 75.9213 86.8255 76.64C85.9602 77.3733 85.4322 78.29 85.2415 79.39C85.0215 80.6367 85.2415 81.6267 85.9015 82.36C86.5762 83.0787 87.4635 83.438 88.5635 83.438C89.6195 83.438 90.5728 83.1007 91.4235 82.426C92.3035 81.7367 92.8388 80.7907 93.0295 79.588ZM106.995 76.046L107.347 74H109.261L107.325 85H105.411L105.697 83.438C104.553 84.67 103.086 85.286 101.297 85.286C99.7129 85.286 98.4735 84.6847 97.5789 83.482C96.6842 82.294 96.3835 80.886 96.6769 79.258C96.9555 77.5713 97.6962 76.2293 98.8989 75.232C100.087 74.22 101.429 73.714 102.925 73.714C104.832 73.714 106.188 74.4913 106.995 76.046ZM106.357 79.588C106.592 78.3413 106.372 77.3587 105.697 76.64C105.037 75.9213 104.157 75.562 103.057 75.562C102.016 75.562 101.062 75.9067 100.197 76.596C99.3169 77.3 98.7815 78.2387 98.5909 79.412C98.3855 80.556 98.5909 81.5093 99.2069 82.272C99.8522 83.0493 100.725 83.438 101.825 83.438C102.94 83.438 103.922 83.0787 104.773 82.36C105.624 81.6267 106.152 80.7027 106.357 79.588ZM115.306 85.286C113.737 85.286 112.476 84.7433 111.522 83.658C110.584 82.5873 110.261 81.216 110.554 79.544C110.892 77.6227 111.412 76.1707 112.116 75.188C112.85 74.1613 114.126 73.2373 115.944 72.416L117.308 71.844L118.562 71.316C119.794 70.832 120.55 70.1427 120.828 69.248L122.28 70.128C122.09 70.6413 121.848 71.052 121.554 71.36C121.144 71.8 120.799 72.0933 120.52 72.24C119.787 72.6507 119.354 72.8853 119.222 72.944L118.54 73.23L117.748 73.538L117 73.824C115.974 74.22 115.189 74.6307 114.646 75.056C114.104 75.4667 113.678 75.9873 113.37 76.618C114.441 75.5913 115.783 75.078 117.396 75.078C118.702 75.078 119.772 75.5767 120.608 76.574C121.459 77.5567 121.76 78.7887 121.51 80.27C121.246 81.766 120.55 82.976 119.42 83.9C118.306 84.824 116.934 85.286 115.306 85.286ZM119.618 80.116C119.78 79.1333 119.589 78.334 119.046 77.718C118.504 77.0873 117.734 76.772 116.736 76.772C115.768 76.772 114.859 77.058 114.008 77.63C113.158 78.202 112.644 78.972 112.468 79.94C112.292 80.9373 112.49 81.7733 113.062 82.448C113.664 83.108 114.47 83.438 115.482 83.438C116.524 83.438 117.426 83.13 118.188 82.514C118.966 81.8687 119.442 81.0693 119.618 80.116ZM128.03 85.286C126.417 85.286 125.111 84.7213 124.114 83.592C123.131 82.4773 122.794 81.0473 123.102 79.302C123.41 77.6007 124.217 76.244 125.522 75.232C126.827 74.22 128.279 73.714 129.878 73.714C131.447 73.714 132.709 74.2787 133.662 75.408C134.615 76.5373 134.945 77.9527 134.652 79.654C134.373 81.37 133.589 82.7413 132.298 83.768C131.022 84.78 129.599 85.286 128.03 85.286ZM128.184 83.416C129.255 83.416 130.23 83.064 131.11 82.36C132.005 81.656 132.555 80.688 132.76 79.456C132.965 78.268 132.745 77.3293 132.1 76.64C131.455 75.936 130.611 75.584 129.57 75.584C128.529 75.6133 127.568 75.9653 126.688 76.64C125.823 77.3147 125.265 78.268 125.016 79.5C124.811 80.7467 125.023 81.7147 125.654 82.404C126.299 83.108 127.143 83.4453 128.184 83.416ZM136.258 74H145.674L145.344 75.848H141.604L139.998 85H138.084L139.69 75.848H135.95L136.258 74ZM155.7 76.046L156.052 74H157.966L156.03 85H154.116L154.402 83.438C153.258 84.67 151.791 85.286 150.002 85.286C148.418 85.286 147.179 84.6847 146.284 83.482C145.389 82.294 145.089 80.886 145.382 79.258C145.661 77.5713 146.401 76.2293 147.604 75.232C148.792 74.22 150.134 73.714 151.63 73.714C153.537 73.714 154.893 74.4913 155.7 76.046ZM155.062 79.588C155.297 78.3413 155.077 77.3587 154.402 76.64C153.742 75.9213 152.862 75.562 151.762 75.562C150.721 75.562 149.767 75.9067 148.902 76.596C148.022 77.3 147.487 78.2387 147.296 79.412C147.091 80.556 147.296 81.5093 147.912 82.272C148.557 83.0493 149.43 83.438 150.53 83.438C151.645 83.438 152.627 83.0787 153.478 82.36C154.329 81.6267 154.857 80.7027 155.062 79.588ZM165.859 73.714C167.517 73.714 168.785 74.286 169.665 75.43C170.56 76.5447 170.853 77.9087 170.545 79.522C170.531 79.698 170.457 79.984 170.325 80.38H161.129C161.129 81.348 161.43 82.1107 162.031 82.668C162.633 83.2107 163.447 83.482 164.473 83.482C165.94 83.482 167.106 82.9393 167.971 81.854L169.401 82.888C168.844 83.636 168.111 84.2227 167.201 84.648C166.292 85.0733 165.309 85.286 164.253 85.286C162.523 85.286 161.195 84.7067 160.271 83.548C159.362 82.3893 159.047 80.9667 159.325 79.28C159.604 77.6813 160.359 76.354 161.591 75.298C162.823 74.242 164.246 73.714 165.859 73.714ZM161.415 78.686H168.741C168.785 77.6593 168.536 76.8747 167.993 76.332C167.451 75.7893 166.703 75.518 165.749 75.518C164.723 75.518 163.821 75.804 163.043 76.376C162.281 76.9333 161.738 77.7033 161.415 78.686ZM182.535 74H184.691L182.755 85H180.885L182.293 77.036L177.805 82.646H177.563L175.055 76.992L173.647 85H171.755L173.691 74H175.671L178.091 79.588L182.535 74ZM196.413 85.286C194.785 85.286 193.495 84.6993 192.541 83.526C191.603 82.3527 191.28 80.93 191.573 79.258C191.867 77.6153 192.629 76.288 193.861 75.276C195.123 74.2347 196.567 73.714 198.195 73.714C199.281 73.714 200.227 73.9707 201.033 74.484C201.855 74.9973 202.427 75.694 202.749 76.574L201.055 77.454C200.571 76.2073 199.567 75.584 198.041 75.584C196.927 75.584 195.937 75.9507 195.071 76.684C194.206 77.4173 193.678 78.3267 193.487 79.412C193.297 80.5267 193.495 81.4727 194.081 82.25C194.668 83.0127 195.526 83.394 196.655 83.394C197.389 83.394 198.071 83.2253 198.701 82.888C199.332 82.536 199.845 82.052 200.241 81.436L201.781 82.448C201.224 83.3427 200.469 84.0393 199.515 84.538C198.577 85.0367 197.543 85.286 196.413 85.286ZM213.794 76.046L214.146 74H216.06L214.124 85H212.21L212.496 83.438C211.352 84.67 209.885 85.286 208.096 85.286C206.512 85.286 205.272 84.6847 204.378 83.482C203.483 82.294 203.182 80.886 203.476 79.258C203.754 77.5713 204.495 76.2293 205.698 75.232C206.886 74.22 208.228 73.714 209.724 73.714C211.63 73.714 212.987 74.4913 213.794 76.046ZM213.156 79.588C213.39 78.3413 213.17 77.3587 212.496 76.64C211.836 75.9213 210.956 75.562 209.856 75.562C208.814 75.562 207.861 75.9067 206.996 76.596C206.116 77.3 205.58 78.2387 205.39 79.412C205.184 80.556 205.39 81.5093 206.006 82.272C206.651 83.0493 207.524 83.438 208.624 83.438C209.738 83.438 210.721 83.0787 211.572 82.36C212.422 81.6267 212.95 80.7027 213.156 79.588ZM226.989 72.35H221.049L221.335 70.678H227.275L226.989 72.35ZM219.509 81.612L226.945 74H228.485L226.549 85H224.657L225.977 77.388L218.563 85H217.023L218.959 74H220.851L219.509 81.612ZM230.167 74H239.583L239.253 75.848H235.513L233.907 85H231.993L233.599 75.848H229.859L230.167 74ZM238.811 82.734H241.011L238.635 88.08H236.985L238.811 82.734ZM257.356 74H259.82L253.616 79.324L258.082 85H255.882L251.68 79.588L250.734 85H248.82L250.756 74H252.67L251.834 78.774L257.356 74ZM264.155 85.286C262.542 85.286 261.236 84.7213 260.239 83.592C259.256 82.4773 258.919 81.0473 259.227 79.302C259.535 77.6007 260.342 76.244 261.647 75.232C262.952 74.22 264.404 73.714 266.003 73.714C267.572 73.714 268.834 74.2787 269.787 75.408C270.74 76.5373 271.07 77.9527 270.777 79.654C270.498 81.37 269.714 82.7413 268.423 83.768C267.147 84.78 265.724 85.286 264.155 85.286ZM264.309 83.416C265.38 83.416 266.355 83.064 267.235 82.36C268.13 81.656 268.68 80.688 268.885 79.456C269.09 78.268 268.87 77.3293 268.225 76.64C267.58 75.936 266.736 75.584 265.695 75.584C264.654 75.6133 263.693 75.9653 262.813 76.64C261.948 77.3147 261.39 78.268 261.141 79.5C260.936 80.7467 261.148 81.7147 261.779 82.404C262.424 83.108 263.268 83.4453 264.309 83.416ZM272.383 74H281.799L281.469 75.848H277.729L276.123 85H274.209L275.815 75.848H272.075L272.383 74ZM286.413 85.286C284.8 85.286 283.494 84.7213 282.497 83.592C281.514 82.4773 281.177 81.0473 281.485 79.302C281.793 77.6007 282.6 76.244 283.905 75.232C285.21 74.22 286.662 73.714 288.261 73.714C289.83 73.714 291.092 74.2787 292.045 75.408C292.998 76.5373 293.328 77.9527 293.035 79.654C292.756 81.37 291.972 82.7413 290.681 83.768C289.405 84.78 287.982 85.286 286.413 85.286ZM286.567 83.416C287.638 83.416 288.613 83.064 289.493 82.36C290.388 81.656 290.938 80.688 291.143 79.456C291.348 78.268 291.128 77.3293 290.483 76.64C289.838 75.936 288.994 75.584 287.953 75.584C286.912 75.6133 285.951 75.9653 285.071 76.64C284.206 77.3147 283.648 78.268 283.399 79.5C283.194 80.7467 283.406 81.7147 284.037 82.404C284.682 83.108 285.526 83.4453 286.567 83.416ZM302.331 73.714C303.9 73.714 305.132 74.3153 306.027 75.518C306.936 76.7207 307.251 78.1213 306.973 79.72C306.694 81.392 305.953 82.7413 304.751 83.768C303.577 84.78 302.243 85.286 300.747 85.286C299.823 85.286 299.001 85.0807 298.283 84.67C297.564 84.2447 297.021 83.658 296.655 82.91L295.511 89.4H293.597L296.303 74H298.217L297.931 75.628C299.075 74.352 300.541 73.714 302.331 73.714ZM305.059 79.588C305.264 78.4587 305.051 77.5053 304.421 76.728C303.805 75.9507 302.939 75.562 301.825 75.562C300.695 75.562 299.705 75.9213 298.855 76.64C297.989 77.3733 297.461 78.29 297.271 79.39C297.051 80.6367 297.271 81.6267 297.931 82.36C298.605 83.0787 299.493 83.438 300.593 83.438C301.649 83.438 302.602 83.1007 303.453 82.426C304.333 81.7367 304.868 80.7907 305.059 79.588ZM311.456 77.96H314.206C315.248 77.96 316.084 78.3193 316.714 79.038C317.36 79.7567 317.587 80.622 317.396 81.634C317.206 82.6753 316.707 83.4967 315.9 84.098C315.094 84.6993 314.111 85 312.952 85H308.31L310.246 74H312.16L311.456 77.96ZM318.21 85L320.146 74H322.06L320.124 85H318.21ZM315.504 81.48C315.607 80.9667 315.497 80.5487 315.174 80.226C314.866 79.8887 314.434 79.72 313.876 79.72H311.148L310.532 83.218H313.26C313.818 83.218 314.309 83.0567 314.734 82.734C315.16 82.4113 315.416 81.9933 315.504 81.48ZM333.014 72.35H327.074L327.36 70.678H333.3L333.014 72.35ZM325.534 81.612L332.97 74H334.51L332.574 85H330.682L332.002 77.388L324.588 85H323.048L324.984 74H326.876L325.534 81.612ZM7.96102 100H17.487L15.551 111H13.637L15.243 101.826H9.54502L7.93902 111H6.02502L7.96102 100ZM26.4285 99.714C27.9978 99.714 29.2298 100.315 30.1245 101.518C31.0338 102.721 31.3491 104.121 31.0705 105.72C30.7918 107.392 30.0511 108.741 28.8485 109.768C27.6751 110.78 26.3405 111.286 24.8445 111.286C23.9205 111.286 23.0991 111.081 22.3805 110.67C21.6618 110.245 21.1191 109.658 20.7525 108.91L19.6085 115.4H17.6945L20.4005 100H22.3145L22.0285 101.628C23.1725 100.352 24.6391 99.714 26.4285 99.714ZM29.1565 105.588C29.3618 104.459 29.1491 103.505 28.5185 102.728C27.9025 101.951 27.0371 101.562 25.9225 101.562C24.7931 101.562 23.8031 101.921 22.9525 102.64C22.0871 103.373 21.5591 104.29 21.3685 105.39C21.1485 106.637 21.3685 107.627 22.0285 108.36C22.7031 109.079 23.5905 109.438 24.6905 109.438C25.7465 109.438 26.6998 109.101 27.5505 108.426C28.4305 107.737 28.9658 106.791 29.1565 105.588ZM39.3378 99.714C40.9952 99.714 42.2638 100.286 43.1438 101.43C44.0385 102.545 44.3318 103.909 44.0238 105.522C44.0092 105.698 43.9358 105.984 43.8038 106.38H34.6078C34.6078 107.348 34.9085 108.111 35.5098 108.668C36.1112 109.211 36.9252 109.482 37.9518 109.482C39.4185 109.482 40.5845 108.939 41.4498 107.854L42.8798 108.888C42.3225 109.636 41.5892 110.223 40.6798 110.648C39.7705 111.073 38.7878 111.286 37.7318 111.286C36.0012 111.286 34.6738 110.707 33.7498 109.548C32.8405 108.389 32.5252 106.967 32.8038 105.28C33.0825 103.681 33.8378 102.354 35.0698 101.298C36.3018 100.242 37.7245 99.714 39.3378 99.714ZM34.8938 104.686H42.2198C42.2638 103.659 42.0145 102.875 41.4718 102.332C40.9292 101.789 40.1812 101.518 39.2278 101.518C38.2012 101.518 37.2992 101.804 36.5218 102.376C35.7592 102.933 35.2165 103.703 34.8938 104.686ZM50.536 111.286C48.9227 111.286 47.6173 110.721 46.62 109.592C45.6373 108.477 45.3 107.047 45.608 105.302C45.916 103.601 46.7227 102.244 48.028 101.232C49.3333 100.22 50.7853 99.714 52.384 99.714C53.9533 99.714 55.2147 100.279 56.168 101.408C57.1213 102.537 57.4513 103.953 57.158 105.654C56.8793 107.37 56.0947 108.741 54.804 109.768C53.528 110.78 52.1053 111.286 50.536 111.286ZM50.69 109.416C51.7607 109.416 52.736 109.064 53.616 108.36C54.5107 107.656 55.0607 106.688 55.266 105.456C55.4713 104.268 55.2513 103.329 54.606 102.64C53.9607 101.936 53.1173 101.584 52.076 101.584C51.0347 101.613 50.074 101.965 49.194 102.64C48.3287 103.315 47.7713 104.268 47.522 105.5C47.3167 106.747 47.5293 107.715 48.16 108.404C48.8053 109.108 49.6487 109.445 50.69 109.416ZM61.3382 100H69.4562L67.8502 109.174H69.3682L68.5102 113.948H66.6182L67.1462 111H58.8962L58.3682 113.948H56.4542L57.3122 109.174H58.6762C59.5562 108.206 60.1502 106.849 60.4582 105.104L61.3382 100ZM60.9202 109.174H65.9582L67.2562 101.782H62.9222L62.3502 105.104C62.0422 106.776 61.5655 108.133 60.9202 109.174ZM75.9735 111.286C74.3602 111.286 73.0548 110.721 72.0575 109.592C71.0748 108.477 70.7375 107.047 71.0455 105.302C71.3535 103.601 72.1602 102.244 73.4655 101.232C74.7708 100.22 76.2228 99.714 77.8215 99.714C79.3908 99.714 80.6522 100.279 81.6055 101.408C82.5588 102.537 82.8888 103.953 82.5955 105.654C82.3168 107.37 81.5322 108.741 80.2415 109.768C78.9655 110.78 77.5428 111.286 75.9735 111.286ZM76.1275 109.416C77.1982 109.416 78.1735 109.064 79.0535 108.36C79.9482 107.656 80.4982 106.688 80.7035 105.456C80.9088 104.268 80.6888 103.329 80.0435 102.64C79.3982 101.936 78.5548 101.584 77.5135 101.584C76.4722 101.613 75.5115 101.965 74.6315 102.64C73.7662 103.315 73.2088 104.268 72.9595 105.5C72.7542 106.747 72.9668 107.715 73.5975 108.404C74.2428 109.108 75.0862 109.445 76.1275 109.416ZM86.4886 100H94.6506L92.7146 111H90.8006L92.4066 101.848H88.0726L87.3026 106.336C86.98 108.199 86.4006 109.482 85.5646 110.186C84.758 110.846 83.6726 111.117 82.3086 111L82.6166 109.196C83.3793 109.284 83.9806 109.108 84.4206 108.668C84.8606 108.228 85.1833 107.436 85.3886 106.292L86.4886 100ZM102.545 99.714C104.202 99.714 105.471 100.286 106.351 101.43C107.246 102.545 107.539 103.909 107.231 105.522C107.216 105.698 107.143 105.984 107.011 106.38H97.8149C97.8149 107.348 98.1155 108.111 98.7169 108.668C99.3182 109.211 100.132 109.482 101.159 109.482C102.626 109.482 103.792 108.939 104.657 107.854L106.087 108.888C105.53 109.636 104.796 110.223 103.887 110.648C102.978 111.073 101.995 111.286 100.939 111.286C99.2082 111.286 97.8809 110.707 96.9569 109.548C96.0475 108.389 95.7322 106.967 96.0109 105.28C96.2895 103.681 97.0449 102.354 98.2769 101.298C99.5089 100.242 100.932 99.714 102.545 99.714ZM98.1009 104.686H105.427C105.471 103.659 105.222 102.875 104.679 102.332C104.136 101.789 103.388 101.518 102.435 101.518C101.408 101.518 100.506 101.804 99.7289 102.376C98.9662 102.933 98.4235 103.703 98.1009 104.686ZM115.371 99.714C117.028 99.714 118.297 100.286 119.177 101.43C120.072 102.545 120.365 103.909 120.057 105.522C120.042 105.698 119.969 105.984 119.837 106.38H110.641C110.641 107.348 110.942 108.111 111.543 108.668C112.144 109.211 112.958 109.482 113.985 109.482C115.452 109.482 116.618 108.939 117.483 107.854L118.913 108.888C118.356 109.636 117.622 110.223 116.713 110.648C115.804 111.073 114.821 111.286 113.765 111.286C112.034 111.286 110.707 110.707 109.783 109.548C108.874 108.389 108.558 106.967 108.837 105.28C109.116 103.681 109.871 102.354 111.103 101.298C112.335 100.242 113.758 99.714 115.371 99.714ZM110.927 104.686H118.253C118.297 103.659 118.048 102.875 117.505 102.332C116.962 101.789 116.214 101.518 115.261 101.518C114.234 101.518 113.332 101.804 112.555 102.376C111.792 102.933 111.25 103.703 110.927 104.686ZM121.563 100H130.979L130.649 101.848H126.909L125.303 111H123.389L124.995 101.848H121.255L121.563 100ZM144.888 103.124C144.698 104.239 144.126 105.016 143.172 105.456C144.258 106.043 144.698 106.959 144.492 108.206C144.316 109.145 143.825 109.893 143.018 110.45C142.212 111.007 141.148 111.286 139.828 111.286C138.714 111.286 137.812 111.051 137.122 110.582C136.433 110.113 135.978 109.467 135.758 108.646L137.43 107.766C137.65 108.925 138.523 109.504 140.048 109.504C140.767 109.504 141.361 109.35 141.83 109.042C142.3 108.719 142.571 108.309 142.644 107.81C142.732 107.37 142.637 107.011 142.358 106.732C142.08 106.453 141.654 106.314 141.082 106.314H139.476L139.806 104.576H140.972C141.53 104.576 141.984 104.444 142.336 104.18C142.703 103.901 142.93 103.527 143.018 103.058C143.092 102.574 142.967 102.193 142.644 101.914C142.322 101.621 141.838 101.474 141.192 101.474C139.96 101.474 139.044 102.002 138.442 103.058L136.968 102.112C138.039 100.513 139.506 99.714 141.368 99.714C142.586 99.714 143.517 100.059 144.162 100.748C144.793 101.423 145.035 102.215 144.888 103.124ZM150.426 108.69L155.178 100H157.312L150.778 111.682C149.311 114.322 147.463 115.561 145.234 115.4L145.542 113.618C146.217 113.677 146.803 113.53 147.302 113.178C147.815 112.826 148.314 112.239 148.798 111.418L149.128 110.89L146.312 100H148.248L150.426 108.69ZM165.51 100H167.974L161.77 105.324L166.236 111H164.036L159.834 105.588L158.888 111H156.974L158.91 100H160.824L159.988 104.774L165.51 100ZM172.309 111.286C170.696 111.286 169.391 110.721 168.393 109.592C167.411 108.477 167.073 107.047 167.381 105.302C167.689 103.601 168.496 102.244 169.801 101.232C171.107 100.22 172.559 99.714 174.157 99.714C175.727 99.714 176.988 100.279 177.941 101.408C178.895 102.537 179.225 103.953 178.931 105.654C178.653 107.37 177.868 108.741 176.577 109.768C175.301 110.78 173.879 111.286 172.309 111.286ZM172.463 109.416C173.534 109.416 174.509 109.064 175.389 108.36C176.284 107.656 176.834 106.688 177.039 105.456C177.245 104.268 177.025 103.329 176.379 102.64C175.734 101.936 174.891 101.584 173.849 101.584C172.808 101.613 171.847 101.965 170.967 102.64C170.102 103.315 169.545 104.268 169.295 105.5C169.09 106.747 169.303 107.715 169.933 108.404C170.579 109.108 171.422 109.445 172.463 109.416ZM190.163 103.146C189.973 104.202 189.437 104.957 188.557 105.412C189.599 105.955 190.017 106.835 189.811 108.052C189.635 108.961 189.203 109.68 188.513 110.208C187.824 110.736 186.907 111 185.763 111H180.263L182.199 100H187.259C188.257 100 189.034 100.308 189.591 100.924C190.134 101.511 190.325 102.251 190.163 103.146ZM186.863 101.716H183.761L183.255 104.598H186.269C187.472 104.598 188.147 104.107 188.293 103.124C188.381 102.684 188.301 102.339 188.051 102.09C187.802 101.841 187.406 101.716 186.863 101.716ZM187.963 107.744C188.037 107.289 187.941 106.937 187.677 106.688C187.428 106.424 187.025 106.292 186.467 106.292H182.969L182.441 109.262H185.961C186.489 109.262 186.929 109.13 187.281 108.866C187.648 108.587 187.875 108.213 187.963 107.744ZM196.63 111.286C195.016 111.286 193.711 110.721 192.714 109.592C191.731 108.477 191.394 107.047 191.702 105.302C192.01 103.601 192.816 102.244 194.122 101.232C195.427 100.22 196.879 99.714 198.478 99.714C200.047 99.714 201.308 100.279 202.262 101.408C203.215 102.537 203.545 103.953 203.252 105.654C202.973 107.37 202.188 108.741 200.898 109.768C199.622 110.78 198.199 111.286 196.63 111.286ZM196.784 109.416C197.854 109.416 198.83 109.064 199.71 108.36C200.604 107.656 201.154 106.688 201.36 105.456C201.565 104.268 201.345 103.329 200.7 102.64C200.054 101.936 199.211 101.584 198.17 101.584C197.128 101.613 196.168 101.965 195.288 102.64C194.422 103.315 193.865 104.268 193.616 105.5C193.41 106.747 193.623 107.715 194.254 108.404C194.899 109.108 195.742 109.445 196.784 109.416ZM214.55 98.35H208.61L208.896 96.678H214.836L214.55 98.35ZM207.07 107.612L214.506 100H216.046L214.11 111H212.218L213.538 103.388L206.124 111H204.584L206.52 100H208.412L207.07 107.612ZM227.605 111.286C226.036 111.286 224.774 110.743 223.821 109.658C222.882 108.587 222.56 107.216 222.853 105.544C223.19 103.623 223.711 102.171 224.415 101.188C225.148 100.161 226.424 99.2373 228.243 98.416L229.607 97.844L230.861 97.316C232.093 96.832 232.848 96.1427 233.127 95.248L234.579 96.128C234.388 96.6413 234.146 97.052 233.853 97.36C233.442 97.8 233.098 98.0933 232.819 98.24C232.086 98.6507 231.653 98.8853 231.521 98.944L230.839 99.23L230.047 99.538L229.299 99.824C228.272 100.22 227.488 100.631 226.945 101.056C226.402 101.467 225.977 101.987 225.669 102.618C226.74 101.591 228.082 101.078 229.695 101.078C231 101.078 232.071 101.577 232.907 102.574C233.758 103.557 234.058 104.789 233.809 106.27C233.545 107.766 232.848 108.976 231.719 109.9C230.604 110.824 229.233 111.286 227.605 111.286ZM231.917 106.116C232.078 105.133 231.888 104.334 231.345 103.718C230.802 103.087 230.032 102.772 229.035 102.772C228.067 102.772 227.158 103.058 226.307 103.63C225.456 104.202 224.943 104.972 224.767 105.94C224.591 106.937 224.789 107.773 225.361 108.448C225.962 109.108 226.769 109.438 227.781 109.438C228.822 109.438 229.724 109.13 230.487 108.514C231.264 107.869 231.741 107.069 231.917 106.116ZM245.741 102.046L246.093 100H248.007L246.071 111H244.157L244.443 109.438C243.299 110.67 241.832 111.286 240.043 111.286C238.459 111.286 237.22 110.685 236.325 109.482C235.43 108.294 235.13 106.886 235.423 105.258C235.702 103.571 236.442 102.229 237.645 101.232C238.833 100.22 240.175 99.714 241.671 99.714C243.578 99.714 244.934 100.491 245.741 102.046ZM245.103 105.588C245.338 104.341 245.118 103.359 244.443 102.64C243.783 101.921 242.903 101.562 241.803 101.562C240.762 101.562 239.808 101.907 238.943 102.596C238.063 103.3 237.528 104.239 237.337 105.412C237.132 106.556 237.337 107.509 237.953 108.272C238.598 109.049 239.471 109.438 240.571 109.438C241.686 109.438 242.668 109.079 243.519 108.36C244.37 107.627 244.898 106.703 245.103 105.588ZM256.934 99.714C258.504 99.714 259.736 100.315 260.63 101.518C261.54 102.721 261.855 104.121 261.576 105.72C261.298 107.392 260.557 108.741 259.354 109.768C258.181 110.78 256.846 111.286 255.35 111.286C254.426 111.286 253.605 111.081 252.886 110.67C252.168 110.245 251.625 109.658 251.258 108.91L250.114 115.4H248.2L250.906 100H252.82L252.534 101.628C253.678 100.352 255.145 99.714 256.934 99.714ZM259.662 105.588C259.868 104.459 259.655 103.505 259.024 102.728C258.408 101.951 257.543 101.562 256.428 101.562C255.299 101.562 254.309 101.921 253.458 102.64C252.593 103.373 252.065 104.29 251.874 105.39C251.654 106.637 251.874 107.627 252.534 108.36C253.209 109.079 254.096 109.438 255.196 109.438C256.252 109.438 257.206 109.101 258.056 108.426C258.936 107.737 259.472 106.791 259.662 105.588ZM266.06 103.96H268.81C269.851 103.96 270.687 104.319 271.318 105.038C271.963 105.757 272.19 106.622 272 107.634C271.809 108.675 271.31 109.497 270.504 110.098C269.697 110.699 268.714 111 267.556 111H262.914L264.85 100H266.764L266.06 103.96ZM270.108 107.48C270.21 106.967 270.1 106.549 269.778 106.226C269.47 105.889 269.037 105.72 268.48 105.72H265.752L265.136 109.218H267.864C268.421 109.218 268.912 109.057 269.338 108.734C269.763 108.411 270.02 107.993 270.108 107.48ZM280.307 99.714C281.964 99.714 283.233 100.286 284.113 101.43C285.007 102.545 285.301 103.909 284.993 105.522C284.978 105.698 284.905 105.984 284.773 106.38H275.577C275.577 107.348 275.877 108.111 276.479 108.668C277.08 109.211 277.894 109.482 278.921 109.482C280.387 109.482 281.553 108.939 282.419 107.854L283.849 108.888C283.291 109.636 282.558 110.223 281.649 110.648C280.739 111.073 279.757 111.286 278.701 111.286C276.97 111.286 275.643 110.707 274.719 109.548C273.809 108.389 273.494 106.967 273.773 105.28C274.051 103.681 274.807 102.354 276.039 101.298C277.271 100.242 278.693 99.714 280.307 99.714ZM275.863 104.686H283.189C283.233 103.659 282.983 102.875 282.441 102.332C281.898 101.789 281.15 101.518 280.197 101.518C279.17 101.518 278.268 101.804 277.491 102.376C276.728 102.933 276.185 103.703 275.863 104.686ZM294.167 99.714C295.736 99.714 296.968 100.315 297.863 101.518C298.772 102.721 299.087 104.121 298.809 105.72C298.53 107.392 297.789 108.741 296.587 109.768C295.413 110.78 294.079 111.286 292.583 111.286C291.659 111.286 290.837 111.081 290.119 110.67C289.4 110.245 288.857 109.658 288.491 108.91L287.347 115.4H285.433L288.139 100H290.053L289.767 101.628C290.911 100.352 292.377 99.714 294.167 99.714ZM296.895 105.588C297.1 104.459 296.887 103.505 296.257 102.728C295.641 101.951 294.775 101.562 293.661 101.562C292.531 101.562 291.541 101.921 290.691 102.64C289.825 103.373 289.297 104.29 289.107 105.39C288.887 106.637 289.107 107.627 289.767 108.36C290.441 109.079 291.329 109.438 292.429 109.438C293.485 109.438 294.438 109.101 295.289 108.426C296.169 107.737 296.704 106.791 296.895 105.588ZM314.314 103.124C314.123 104.239 313.551 105.016 312.598 105.456C313.683 106.043 314.123 106.959 313.918 108.206C313.742 109.145 313.251 109.893 312.444 110.45C311.637 111.007 310.574 111.286 309.254 111.286C308.139 111.286 307.237 111.051 306.548 110.582C305.859 110.113 305.404 109.467 305.184 108.646L306.856 107.766C307.076 108.925 307.949 109.504 309.474 109.504C310.193 109.504 310.787 109.35 311.256 109.042C311.725 108.719 311.997 108.309 312.07 107.81C312.158 107.37 312.063 107.011 311.784 106.732C311.505 106.453 311.08 106.314 310.508 106.314H308.902L309.232 104.576H310.398C310.955 104.576 311.41 104.444 311.762 104.18C312.129 103.901 312.356 103.527 312.444 103.058C312.517 102.574 312.393 102.193 312.07 101.914C311.747 101.621 311.263 101.474 310.618 101.474C309.386 101.474 308.469 102.002 307.868 103.058L306.394 102.112C307.465 100.513 308.931 99.714 310.794 99.714C312.011 99.714 312.943 100.059 313.588 100.748C314.219 101.423 314.461 102.215 314.314 103.124ZM326.221 102.046L326.573 100H328.487L326.551 111H324.637L324.923 109.438C323.779 110.67 322.313 111.286 320.523 111.286C318.939 111.286 317.7 110.685 316.805 109.482C315.911 108.294 315.61 106.886 315.903 105.258C316.182 103.571 316.923 102.229 318.125 101.232C319.313 100.22 320.655 99.714 322.151 99.714C324.058 99.714 325.415 100.491 326.221 102.046ZM325.583 105.588C325.818 104.341 325.598 103.359 324.923 102.64C324.263 101.921 323.383 101.562 322.283 101.562C321.242 101.562 320.289 101.907 319.423 102.596C318.543 103.3 318.008 104.239 317.817 105.412C317.612 106.556 317.817 107.509 318.433 108.272C319.079 109.049 319.951 109.438 321.051 109.438C322.166 109.438 323.149 109.079 323.999 108.36C324.85 107.627 325.378 106.703 325.583 105.588ZM334.929 100H339.615L337.679 111H335.787L336.491 107.04H334.819L331.079 111H328.769L332.707 106.886C331.944 106.637 331.357 106.197 330.947 105.566C330.521 104.891 330.382 104.165 330.529 103.388C330.705 102.391 331.196 101.577 332.003 100.946C332.809 100.315 333.785 100 334.929 100ZM334.071 105.324H336.777L337.415 101.782H334.687C334.115 101.782 333.616 101.951 333.191 102.288C332.765 102.611 332.509 103.036 332.421 103.564C332.318 104.092 332.421 104.517 332.729 104.84C333.051 105.163 333.499 105.324 334.071 105.324ZM350.48 103.146C350.289 104.202 349.754 104.957 348.874 105.412C349.915 105.955 350.333 106.835 350.128 108.052C349.952 108.961 349.519 109.68 348.83 110.208C348.14 110.736 347.224 111 346.08 111H340.58L342.516 100H347.576C348.573 100 349.35 100.308 349.908 100.924C350.45 101.511 350.641 102.251 350.48 103.146ZM347.18 101.716H344.078L343.572 104.598H346.586C347.788 104.598 348.463 104.107 348.61 103.124C348.698 102.684 348.617 102.339 348.368 102.09C348.118 101.841 347.722 101.716 347.18 101.716ZM348.28 107.744C348.353 107.289 348.258 106.937 347.994 106.688C347.744 106.424 347.341 106.292 346.784 106.292H343.286L342.758 109.262H346.278C346.806 109.262 347.246 109.13 347.598 108.866C347.964 108.587 348.192 108.213 348.28 107.744ZM356.946 111.286C355.333 111.286 354.027 110.721 353.03 109.592C352.047 108.477 351.71 107.047 352.018 105.302C352.326 103.601 353.133 102.244 354.438 101.232C355.743 100.22 357.195 99.714 358.794 99.714C360.363 99.714 361.625 100.279 362.578 101.408C363.531 102.537 363.861 103.953 363.568 105.654C363.289 107.37 362.505 108.741 361.214 109.768C359.938 110.78 358.515 111.286 356.946 111.286ZM357.1 109.416C358.171 109.416 359.146 109.064 360.026 108.36C360.921 107.656 361.471 106.688 361.676 105.456C361.881 104.268 361.661 103.329 361.016 102.64C360.371 101.936 359.527 101.584 358.486 101.584C357.445 101.613 356.484 101.965 355.604 102.64C354.739 103.315 354.181 104.268 353.932 105.5C353.727 106.747 353.939 107.715 354.57 108.404C355.215 109.108 356.059 109.445 357.1 109.416ZM373.436 100H375.9L369.696 105.324L374.162 111H371.962L367.76 105.588L366.814 111H364.9L366.836 100H368.75L367.914 104.774L373.436 100Z" fill="#FFED00"/>
<path d="M460.326 22.0447C461.314 23.1367 461.23 24.823 460.138 25.8113C459.046 26.7995 457.36 26.7155 456.372 25.6235C455.384 24.5316 455.468 22.8452 456.56 21.8569C457.652 20.8687 459.338 20.9528 460.326 22.0447ZM411.638 49.5093L411.243 49.2023L411.638 49.5093ZM458.349 23.8341L458.481 24.3165C457.473 24.5914 456.404 24.6422 455.277 24.6035C454.157 24.5651 452.93 24.4354 451.638 24.3347C449.035 24.1319 446.021 24.0323 442.412 24.9288C435.199 26.7211 425.483 32.5293 412.033 49.8164L411.638 49.5093L411.243 49.2023C424.758 31.8334 434.647 25.8278 442.171 23.9583C445.932 23.024 449.071 23.1316 451.716 23.3377C453.048 23.4415 454.22 23.5667 455.311 23.6041C456.394 23.6412 457.349 23.5887 458.217 23.3517L458.349 23.8341ZM411.638 49.5093L412.033 49.8164C406.521 56.8999 401.295 60.1032 396.234 61.4392C391.202 62.7676 386.374 62.2322 381.764 61.9446C377.128 61.6553 372.686 61.6104 368.226 63.7855C363.768 65.9593 359.217 70.3905 354.484 79.2211L354.043 78.9849L353.603 78.7487C358.391 69.8145 363.072 65.1862 367.787 62.8867C372.5 60.5884 377.173 60.6562 381.826 60.9465C386.505 61.2385 391.141 61.7497 395.979 60.4724C400.788 59.2027 405.839 56.1481 411.243 49.2023L411.638 49.5093Z" fill="#FFED00"/>
</svg>
