<svg width="86" height="86" viewBox="0 0 86 86" fill="none" xmlns="http://www.w3.org/2000/svg">
<path d="M41.4964 0.714466C42.293 -0.193883 43.707 -0.193884 44.5036 0.714465L51.1496 8.29228C51.683 8.90042 52.5301 9.12741 53.2961 8.86743L62.8406 5.62783C63.9847 5.23951 65.2092 5.94649 65.445 7.13147L67.4116 17.017C67.5695 17.8104 68.1896 18.4305 68.983 18.5884L78.8685 20.555C80.0535 20.7908 80.7605 22.0153 80.3722 23.1594L77.1326 32.7039C76.8726 33.4699 77.0996 34.317 77.7077 34.8504L85.2855 41.4964C86.1939 42.293 86.1939 43.707 85.2855 44.5036L77.7077 51.1496C77.0996 51.683 76.8726 52.5301 77.1326 53.2961L80.3722 62.8406C80.7605 63.9847 80.0535 65.2092 78.8685 65.445L68.983 67.4116C68.1896 67.5695 67.5695 68.1896 67.4116 68.983L65.445 78.8685C65.2092 80.0535 63.9847 80.7605 62.8406 80.3722L53.2961 77.1326C52.5301 76.8726 51.683 77.0996 51.1496 77.7077L44.5036 85.2855C43.707 86.1939 42.293 86.1939 41.4964 85.2855L34.8504 77.7077C34.317 77.0996 33.4699 76.8726 32.7039 77.1326L23.1594 80.3722C22.0153 80.7605 20.7908 80.0535 20.555 78.8685L18.5884 68.983C18.4305 68.1896 17.8104 67.5695 17.017 67.4116L7.13147 65.445C5.94649 65.2092 5.2395 63.9847 5.62783 62.8406L8.86743 53.2961C9.12741 52.5301 8.90042 51.683 8.29228 51.1496L0.714466 44.5036C-0.193883 43.707 -0.193884 42.293 0.714465 41.4964L8.29228 34.8504C8.90042 34.317 9.12741 33.4699 8.86743 32.7039L5.62783 23.1594C5.23951 22.0153 5.94649 20.7908 7.13147 20.555L17.017 18.5884C17.8104 18.4305 18.4305 17.8104 18.5884 17.017L20.555 7.13147C20.7908 5.94649 22.0153 5.2395 23.1594 5.62783L32.7039 8.86743C33.4699 9.12741 34.317 8.90042 34.8504 8.29228L41.4964 0.714466Z" fill="url(#paint0_linear_15422_352386)"/>
<defs>
<linearGradient id="paint0_linear_15422_352386" x1="-0.0411624" y1="83.8951" x2="89.1286" y2="79.4571" gradientUnits="userSpaceOnUse">
<stop stop-color="#FFBC00"/>
<stop offset="0.359063" stop-color="#FFED00"/>
<stop offset="0.600648" stop-color="#FFED00"/>
<stop offset="1" stop-color="#FFBC00"/>
</linearGradient>
</defs>
</svg>
