<svg width="668" height="590" viewBox="0 0 668 590" fill="none" xmlns="http://www.w3.org/2000/svg">
<g clip-path="url(#clip0_15422_313599)">
<rect width="668" height="590" rx="16" fill="#0D0D0D"/>
<path opacity="0.15" d="M-95 610H775V271.392C769.516 232.553 767.653 192.941 755.488 155.715C739.325 106.274 705.752 64.0377 666.54 29.9847C627.329 -4.05105 582.411 -30.693 537.766 -57.1119C525.823 -64.1798 507.866 -70.0469 500.4 -58.3127C495.923 -51.262 498.982 -41.3978 505.047 -35.668C509.37 -31.6022 515.008 -28.8745 520.612 -27.0904C524.542 -25.8552 528.83 -25.7866 532.572 -23.9682C542.994 -18.9245 552.733 -9.12896 561.72 -1.85519C581.027 13.7731 599.582 30.6366 614.856 50.3307C623.416 61.3615 630.883 73.2843 636.675 86.0134C658.374 133.705 649.472 199.821 603.682 225.021C560.883 248.558 508.635 228.212 459.992 224.267C440.31 222.671 419.841 224.061 402.089 232.724C384.337 241.388 369.763 258.388 368.02 278.134C364.655 316.561 408.018 348.967 400.671 386.829C396.468 408.53 375.589 424.021 353.908 427.898C332.226 431.758 309.981 426.131 289.239 418.737C251.052 405.133 215.275 385.508 177.601 370.514C139.927 355.521 99.0757 345.107 59.027 351.232C18.9612 357.339 -20.0112 382.883 -33.0133 421.414C-46.7331 462.123 -30.2796 509.642 -48.7321 548.43C-58.5392 569.068 -76.9234 584.113 -90.2672 602.658C-91.9416 604.991 -93.5306 607.444 -95 610Z" fill="url(#paint0_linear_15422_313599)"/>
</g>
<defs>
<linearGradient id="paint0_linear_15422_313599" x1="123.045" y1="21.4684" x2="508.545" y2="679.185" gradientUnits="userSpaceOnUse">
<stop stop-color="#FFFAEC"/>
<stop offset="1" stop-color="#FFF2C9" stop-opacity="0"/>
</linearGradient>
<clipPath id="clip0_15422_313599">
<rect width="668" height="590" rx="16" fill="white"/>
</clipPath>
</defs>
</svg>
