<svg width="449" height="264" viewBox="0 0 449 264" fill="none" xmlns="http://www.w3.org/2000/svg">
<path opacity="0.15" d="M0.333374 264H478.333V78.3926C475.32 57.1029 474.297 35.3901 467.613 14.9844C458.733 -12.1167 440.287 -35.2682 418.743 -53.9343C397.199 -72.5909 372.52 -87.1947 347.991 -101.676C341.429 -105.55 331.563 -108.766 327.461 -102.334C325.002 -98.4695 326.682 -93.0625 330.014 -89.9217C332.389 -87.6931 335.487 -86.1979 338.566 -85.2199C340.725 -84.5429 343.082 -84.5052 345.137 -83.5085C350.864 -80.7438 356.214 -75.3744 361.152 -71.3873C371.76 -62.8206 381.954 -53.577 390.346 -42.7817C395.049 -36.7352 399.152 -30.1997 402.334 -23.2223C414.256 2.91962 409.365 39.1609 384.207 52.9747C360.692 65.8764 331.986 54.7238 305.26 52.561C294.446 51.6865 283.2 52.4482 273.447 57.197C263.693 61.9458 255.686 71.2647 254.729 82.0882C252.879 103.152 276.704 120.915 272.668 141.669C270.358 153.565 258.887 162.056 246.975 164.181C235.062 166.297 222.84 163.213 211.444 159.16C190.463 151.703 170.806 140.945 150.107 132.726C129.408 124.508 106.963 118.8 84.9597 122.157C62.9465 125.504 41.5341 139.506 34.3904 160.627C26.8524 182.941 35.8924 208.989 25.7541 230.251C20.3658 241.563 10.2651 249.81 2.93369 259.975C2.01373 261.254 1.14069 262.599 0.333374 264Z" fill="url(#paint0_linear_15422_313840)"/>
<defs>
<linearGradient id="paint0_linear_15422_313840" x1="120.133" y1="-58.6025" x2="331.204" y2="302.352" gradientUnits="userSpaceOnUse">
<stop stop-color="#FFFAEC"/>
<stop offset="1" stop-color="#FFF2C9" stop-opacity="0"/>
</linearGradient>
</defs>
</svg>
